<svg width="362" height="118" viewBox="0 0 181 59" fill="none" xmlns="http://www.w3.org/2000/svg">
<path d="M25.7735 11.21C29.6748 11.21 32.4615 11.9193 34.1335 13.338C35.8055 14.7567 36.6415 16.91 36.6415 19.798C36.6415 21.4953 36.2235 23.0153 35.3875 24.358C34.5515 25.6753 33.2848 26.714 31.5875 27.474C29.8902 28.234 27.8128 28.614 25.3555 28.614H23.7595V31.958C23.7595 32.9713 23.8735 33.7313 24.1015 34.238C24.3295 34.7447 24.7222 35.0993 25.2795 35.302C25.8622 35.4793 26.7362 35.568 27.9015 35.568C27.9015 36.024 27.8255 36.4673 27.6735 36.898C27.5215 37.3287 27.3188 37.696 27.0655 38H16.0075C15.7288 37.696 15.5135 37.3287 15.3615 36.898C15.2095 36.4673 15.1335 36.024 15.1335 35.568C15.9948 35.568 16.6028 35.4287 16.9575 35.15C17.3375 34.846 17.5275 34.352 17.5275 33.668V15.808C17.5275 15.0987 17.3375 14.6047 16.9575 14.326C16.6028 14.022 15.9948 13.87 15.1335 13.87C15.1335 13.0087 15.4122 12.2107 15.9695 11.476C17.6668 11.476 19.9722 11.4127 22.8855 11.286C24.3548 11.2353 25.3175 11.21 25.7735 11.21ZM30.0295 19.684C30.0295 18.0627 29.6495 16.7453 28.8895 15.732C28.1548 14.7187 26.9135 14.212 25.1655 14.212C24.6082 14.212 24.1395 14.2627 23.7595 14.364V25.498C23.9875 25.5487 24.3168 25.574 24.7475 25.574C26.8502 25.574 28.2562 25.0167 28.9655 23.902C29.6748 22.7873 30.0295 21.3813 30.0295 19.684ZM40.1969 13.68C40.1969 13.0467 40.0069 12.578 39.6269 12.274C39.2722 11.9447 38.6009 11.78 37.6129 11.78V10.26C38.5249 9.75333 39.6775 9.32266 41.0709 8.968C42.4642 8.61333 43.5915 8.436 44.4529 8.436C45.0609 8.436 45.4915 8.56267 45.7449 8.816C45.9982 9.06933 46.1249 9.51267 46.1249 10.146V33.858C46.1249 34.6433 46.2769 35.188 46.5809 35.492C46.9102 35.796 47.4549 35.948 48.2149 35.948C48.2149 36.6573 47.9109 37.3413 47.3029 38H38.9809C38.3982 37.3667 38.1069 36.6827 38.1069 35.948C38.8415 35.948 39.3735 35.796 39.7029 35.492C40.0322 35.1627 40.1969 34.618 40.1969 33.858V13.68ZM60.5575 34.124C62.1535 34.124 63.6355 33.6173 65.0035 32.604C65.2061 32.8067 65.3835 33.1107 65.5355 33.516C65.6875 33.9213 65.7635 34.276 65.7635 34.58C65.7635 35.036 65.4595 35.568 64.8515 36.176C64.2435 36.7587 63.3948 37.2653 62.3055 37.696C61.2415 38.1267 60.0381 38.342 58.6955 38.342C56.8208 38.342 55.1741 37.9367 53.7555 37.126C52.3621 36.3153 51.2855 35.1373 50.5255 33.592C49.7655 32.0467 49.3855 30.2227 49.3855 28.12C49.3855 25.9667 49.7908 24.0793 50.6015 22.458C51.4375 20.8367 52.5775 19.5953 54.0215 18.734C55.4655 17.8473 57.0995 17.404 58.9235 17.404C61.2288 17.404 63.0655 18.0753 64.4335 19.418C65.8015 20.7607 66.4855 22.6227 66.4855 25.004C66.4855 26.1187 66.3081 27.0053 65.9535 27.664C65.5988 28.2973 64.9655 28.614 64.0535 28.614H55.8455C55.9975 32.2873 57.5681 34.124 60.5575 34.124ZM58.6955 20.026C57.9101 20.026 57.2515 20.4693 56.7195 21.356C56.1875 22.2173 55.8961 23.674 55.8455 25.726H59.6835C60.0888 25.726 60.3548 25.5867 60.4815 25.308C60.6081 25.0293 60.6715 24.5987 60.6715 24.016C60.6715 22.5213 60.4941 21.4827 60.1395 20.9C59.7848 20.3173 59.3035 20.026 58.6955 20.026ZM76.2497 38.38C75.0083 38.38 73.767 38.2027 72.5257 37.848C71.3097 37.468 70.309 36.936 69.5237 36.252C68.7383 35.568 68.3457 34.7573 68.3457 33.82C68.3457 32.9333 68.599 32.224 69.1057 31.692C69.6123 31.1347 70.2583 30.856 71.0437 30.856C71.753 30.856 72.3483 31.084 72.8297 31.54C73.3363 31.996 73.5897 32.5913 73.5897 33.326C73.5897 33.6553 73.539 33.9467 73.4377 34.2C73.3617 34.428 73.2097 34.6813 72.9817 34.96C73.1843 35.1627 73.5643 35.3273 74.1217 35.454C74.679 35.5553 75.2743 35.606 75.9077 35.606C76.769 35.606 77.4403 35.454 77.9217 35.15C78.4283 34.8207 78.6817 34.4027 78.6817 33.896C78.6817 33.212 78.365 32.6293 77.7317 32.148C77.0983 31.6413 76.085 31.0207 74.6917 30.286C73.273 29.526 72.1963 28.9053 71.4617 28.424C70.727 27.9173 70.0683 27.246 69.4857 26.41C68.9283 25.5487 68.6497 24.4973 68.6497 23.256C68.6497 21.5333 69.359 20.14 70.7777 19.076C72.1963 18.012 74.1597 17.48 76.6677 17.48C79.125 17.48 80.949 17.9233 82.1397 18.81C83.3557 19.6713 83.9637 20.71 83.9637 21.926C83.9637 22.686 83.7103 23.3067 83.2037 23.788C82.7223 24.2693 82.127 24.51 81.4177 24.51C80.759 24.51 80.189 24.32 79.7077 23.94C79.2517 23.5347 79.0237 23.0153 79.0237 22.382C79.0237 22.0527 79.0743 21.7233 79.1757 21.394C79.277 21.0393 79.4163 20.748 79.5937 20.52C79.087 20.1147 78.327 19.912 77.3137 19.912C76.503 19.912 75.8697 20.102 75.4137 20.482C74.9577 20.862 74.7297 21.3433 74.7297 21.926C74.7297 22.7113 75.0463 23.3573 75.6797 23.864C76.313 24.3707 77.3263 24.9787 78.7197 25.688C80.037 26.372 81.0757 26.9673 81.8357 27.474C82.5957 27.9807 83.2543 28.652 83.8117 29.488C84.369 30.324 84.6477 31.35 84.6477 32.566C84.6477 34.542 83.837 36.0113 82.2157 36.974C80.6197 37.9113 78.631 38.38 76.2497 38.38ZM94.2848 38.38C93.0435 38.38 91.8022 38.2027 90.5608 37.848C89.3448 37.468 88.3442 36.936 87.5588 36.252C86.7735 35.568 86.3808 34.7573 86.3808 33.82C86.3808 32.9333 86.6342 32.224 87.1408 31.692C87.6475 31.1347 88.2935 30.856 89.0788 30.856C89.7882 30.856 90.3835 31.084 90.8648 31.54C91.3715 31.996 91.6248 32.5913 91.6248 33.326C91.6248 33.6553 91.5742 33.9467 91.4728 34.2C91.3968 34.428 91.2448 34.6813 91.0168 34.96C91.2195 35.1627 91.5995 35.3273 92.1568 35.454C92.7142 35.5553 93.3095 35.606 93.9428 35.606C94.8042 35.606 95.4755 35.454 95.9568 35.15C96.4635 34.8207 96.7168 34.4027 96.7168 33.896C96.7168 33.212 96.4002 32.6293 95.7668 32.148C95.1335 31.6413 94.1202 31.0207 92.7268 30.286C91.3082 29.526 90.2315 28.9053 89.4968 28.424C88.7622 27.9173 88.1035 27.246 87.5208 26.41C86.9635 25.5487 86.6848 24.4973 86.6848 23.256C86.6848 21.5333 87.3942 20.14 88.8128 19.076C90.2315 18.012 92.1948 17.48 94.7028 17.48C97.1602 17.48 98.9842 17.9233 100.175 18.81C101.391 19.6713 101.999 20.71 101.999 21.926C101.999 22.686 101.746 23.3067 101.239 23.788C100.758 24.2693 100.162 24.51 99.4528 24.51C98.7942 24.51 98.2242 24.32 97.7428 23.94C97.2868 23.5347 97.0588 23.0153 97.0588 22.382C97.0588 22.0527 97.1095 21.7233 97.2108 21.394C97.3122 21.0393 97.4515 20.748 97.6288 20.52C97.1222 20.1147 96.3622 19.912 95.3488 19.912C94.5382 19.912 93.9048 20.102 93.4488 20.482C92.9928 20.862 92.7648 21.3433 92.7648 21.926C92.7648 22.7113 93.0815 23.3573 93.7148 23.864C94.3482 24.3707 95.3615 24.9787 96.7548 25.688C98.0722 26.372 99.1108 26.9673 99.8708 27.474C100.631 27.9807 101.29 28.652 101.847 29.488C102.404 30.324 102.683 31.35 102.683 32.566C102.683 34.542 101.872 36.0113 100.251 36.974C98.6548 37.9113 96.6662 38.38 94.2848 38.38ZM115.702 34.124C117.298 34.124 118.78 33.6173 120.148 32.604C120.351 32.8067 120.528 33.1107 120.68 33.516C120.832 33.9213 120.908 34.276 120.908 34.58C120.908 35.036 120.604 35.568 119.996 36.176C119.388 36.7587 118.539 37.2653 117.45 37.696C116.386 38.1267 115.183 38.342 113.84 38.342C111.965 38.342 110.319 37.9367 108.9 37.126C107.507 36.3153 106.43 35.1373 105.67 33.592C104.91 32.0467 104.53 30.2227 104.53 28.12C104.53 25.9667 104.935 24.0793 105.746 22.458C106.582 20.8367 107.722 19.5953 109.166 18.734C110.61 17.8473 112.244 17.404 114.068 17.404C116.373 17.404 118.21 18.0753 119.578 19.418C120.946 20.7607 121.63 22.6227 121.63 25.004C121.63 26.1187 121.453 27.0053 121.098 27.664C120.743 28.2973 120.11 28.614 119.198 28.614H110.99C111.142 32.2873 112.713 34.124 115.702 34.124ZM113.84 20.026C113.055 20.026 112.396 20.4693 111.864 21.356C111.332 22.2173 111.041 23.674 110.99 25.726H114.828C115.233 25.726 115.499 25.5867 115.626 25.308C115.753 25.0293 115.816 24.5987 115.816 24.016C115.816 22.5213 115.639 21.4827 115.284 20.9C114.929 20.3173 114.448 20.026 113.84 20.026ZM136.6 17.366C137.74 17.366 138.576 17.6573 139.108 18.24C139.64 18.8227 139.906 19.6207 139.906 20.634C139.906 21.7233 139.615 22.61 139.032 23.294C138.475 23.978 137.715 24.32 136.752 24.32C135.916 24.32 135.232 24.0793 134.7 23.598C134.194 23.1167 133.94 22.5467 133.94 21.888C133.94 21.4827 133.978 21.166 134.054 20.938C133.142 21.166 132.37 21.5587 131.736 22.116V33.516C131.736 34.1493 131.825 34.6307 132.002 34.96C132.18 35.2893 132.522 35.5427 133.028 35.72C133.56 35.872 134.346 35.948 135.384 35.948C135.384 36.404 135.334 36.7967 135.232 37.126C135.131 37.43 134.941 37.7213 134.662 38H124.516C123.934 37.4173 123.642 36.7333 123.642 35.948C124.377 35.948 124.896 35.796 125.2 35.492C125.53 35.1627 125.694 34.618 125.694 33.858V22.876C125.694 22.192 125.504 21.7107 125.124 21.432C124.77 21.1533 124.124 21.014 123.186 21.014V19.304C124.022 18.8227 125.124 18.4047 126.492 18.05C127.886 17.67 128.962 17.48 129.722 17.48C130.33 17.48 130.761 17.6953 131.014 18.126C131.268 18.5567 131.394 19.418 131.394 20.71C131.85 19.8487 132.572 19.076 133.56 18.392C134.548 17.708 135.562 17.366 136.6 17.366ZM143.144 21.85C142.865 21.7487 142.612 21.5333 142.384 21.204C142.156 20.8493 142.042 20.482 142.042 20.102C143.055 19.4687 143.866 18.658 144.474 17.67C145.107 16.682 145.424 15.694 145.424 14.706C145.424 14.5033 145.411 14.3387 145.386 14.212C145.31 14.2373 145.132 14.25 144.854 14.25C143.891 14.25 143.131 13.9207 142.574 13.262C142.042 12.6033 141.776 11.8053 141.776 10.868C141.776 9.85467 142.08 9.03133 142.688 8.398C143.296 7.73933 144.081 7.41 145.044 7.41C146.209 7.41 147.146 7.85333 147.856 8.74C148.565 9.60133 148.92 10.8933 148.92 12.616C148.92 14.136 148.641 15.542 148.084 16.834C147.552 18.126 146.842 19.2153 145.956 20.102C145.069 20.9633 144.132 21.546 143.144 21.85ZM159.597 38.38C158.356 38.38 157.115 38.2027 155.873 37.848C154.657 37.468 153.657 36.936 152.871 36.252C152.086 35.568 151.693 34.7573 151.693 33.82C151.693 32.9333 151.947 32.224 152.453 31.692C152.96 31.1347 153.606 30.856 154.391 30.856C155.101 30.856 155.696 31.084 156.177 31.54C156.684 31.996 156.937 32.5913 156.937 33.326C156.937 33.6553 156.887 33.9467 156.785 34.2C156.709 34.428 156.557 34.6813 156.329 34.96C156.532 35.1627 156.912 35.3273 157.469 35.454C158.027 35.5553 158.622 35.606 159.255 35.606C160.117 35.606 160.788 35.454 161.269 35.15C161.776 34.8207 162.029 34.4027 162.029 33.896C162.029 33.212 161.713 32.6293 161.079 32.148C160.446 31.6413 159.433 31.0207 158.039 30.286C156.621 29.526 155.544 28.9053 154.809 28.424C154.075 27.9173 153.416 27.246 152.833 26.41C152.276 25.5487 151.997 24.4973 151.997 23.256C151.997 21.5333 152.707 20.14 154.125 19.076C155.544 18.012 157.507 17.48 160.015 17.48C162.473 17.48 164.297 17.9233 165.487 18.81C166.703 19.6713 167.311 20.71 167.311 21.926C167.311 22.686 167.058 23.3067 166.551 23.788C166.07 24.2693 165.475 24.51 164.765 24.51C164.107 24.51 163.537 24.32 163.055 23.94C162.599 23.5347 162.371 23.0153 162.371 22.382C162.371 22.0527 162.422 21.7233 162.523 21.394C162.625 21.0393 162.764 20.748 162.941 20.52C162.435 20.1147 161.675 19.912 160.661 19.912C159.851 19.912 159.217 20.102 158.761 20.482C158.305 20.862 158.077 21.3433 158.077 21.926C158.077 22.7113 158.394 23.3573 159.027 23.864C159.661 24.3707 160.674 24.9787 162.067 25.688C163.385 26.372 164.423 26.9673 165.183 27.474C165.943 27.9807 166.602 28.652 167.159 29.488C167.717 30.324 167.995 31.35 167.995 32.566C167.995 34.542 167.185 36.0113 165.563 36.974C163.967 37.9113 161.979 38.38 159.597 38.38Z" fill="#1D417B"/>
<path d="M29.3695 51.07H26.3545L27.8395 47.095L29.3695 51.07ZM27.1345 44.8L23.2345 55H24.8995L25.8595 52.435H29.8945L30.8845 55.135L32.5645 54.895L28.6045 44.8H27.1345ZM35.3335 58.12V48.76L34.5535 47.725H33.6685V58.285L35.3335 58.12ZM34.7335 50.005C35.0635 49.655 35.3785 49.395 35.6785 49.225C35.9885 49.055 36.3435 48.97 36.7435 48.97C37.1635 48.97 37.5185 49.075 37.8085 49.285C38.0985 49.485 38.3135 49.765 38.4535 50.125C38.6035 50.485 38.6785 50.905 38.6785 51.385C38.6785 51.825 38.6035 52.225 38.4535 52.585C38.3035 52.945 38.0835 53.23 37.7935 53.44C37.5035 53.64 37.1485 53.74 36.7285 53.74C36.3485 53.74 35.9985 53.665 35.6785 53.515C35.3685 53.355 35.0485 53.08 34.7185 52.69L34.2235 53.86C34.4135 54.13 34.6535 54.365 34.9435 54.565C35.2435 54.765 35.5535 54.92 35.8735 55.03C36.2035 55.14 36.4885 55.195 36.7285 55.195C37.4985 55.195 38.1535 55.035 38.6935 54.715C39.2435 54.395 39.6685 53.95 39.9685 53.38C40.2685 52.8 40.4185 52.13 40.4185 51.37C40.4185 50.59 40.2685 49.915 39.9685 49.345C39.6785 48.765 39.2585 48.32 38.7085 48.01C38.1685 47.69 37.5235 47.53 36.7735 47.53C36.5035 47.53 36.2135 47.58 35.9035 47.68C35.6035 47.78 35.3085 47.93 35.0185 48.13C34.7285 48.32 34.4735 48.56 34.2535 48.85L34.7335 50.005ZM43.4487 58.12V48.76L42.6687 47.725H41.7837V58.285L43.4487 58.12ZM42.8487 50.005C43.1787 49.655 43.4937 49.395 43.7937 49.225C44.1037 49.055 44.4587 48.97 44.8587 48.97C45.2787 48.97 45.6337 49.075 45.9237 49.285C46.2137 49.485 46.4287 49.765 46.5687 50.125C46.7187 50.485 46.7937 50.905 46.7937 51.385C46.7937 51.825 46.7187 52.225 46.5687 52.585C46.4187 52.945 46.1987 53.23 45.9087 53.44C45.6187 53.64 45.2637 53.74 44.8437 53.74C44.4637 53.74 44.1137 53.665 43.7937 53.515C43.4837 53.355 43.1637 53.08 42.8337 52.69L42.3387 53.86C42.5287 54.13 42.7687 54.365 43.0587 54.565C43.3587 54.765 43.6687 54.92 43.9887 55.03C44.3187 55.14 44.6037 55.195 44.8437 55.195C45.6137 55.195 46.2687 55.035 46.8087 54.715C47.3587 54.395 47.7837 53.95 48.0837 53.38C48.3837 52.8 48.5337 52.13 48.5337 51.37C48.5337 50.59 48.3837 49.915 48.0837 49.345C47.7937 48.765 47.3737 48.32 46.8237 48.01C46.2837 47.69 45.6387 47.53 44.8887 47.53C44.6187 47.53 44.3287 47.58 44.0187 47.68C43.7187 47.78 43.4237 47.93 43.1337 48.13C42.8437 48.32 42.5887 48.56 42.3687 48.85L42.8487 50.005ZM51.624 55V44.41L49.959 44.575V55H51.624ZM55.21 55V47.725H53.515V55H55.21ZM54.34 46.555C54.62 46.555 54.855 46.46 55.045 46.27C55.245 46.07 55.345 45.83 55.345 45.55C55.345 45.27 55.245 45.035 55.045 44.845C54.845 44.655 54.61 44.56 54.34 44.56C54.06 44.56 53.825 44.655 53.635 44.845C53.455 45.035 53.365 45.27 53.365 45.55C53.365 45.84 53.455 46.08 53.635 46.27C53.825 46.46 54.06 46.555 54.34 46.555ZM58.2031 52.855C58.2031 52.565 58.3081 52.3 58.5181 52.06C58.7281 51.82 59.0231 51.7 59.4031 51.7H61.0381V53.005C60.7781 53.265 60.4981 53.47 60.1981 53.62C59.8981 53.77 59.5881 53.845 59.2681 53.845C59.0481 53.845 58.8581 53.8 58.6981 53.71C58.5381 53.61 58.4131 53.485 58.3231 53.335C58.2431 53.185 58.2031 53.025 58.2031 52.855ZM57.5881 49.555C57.8681 49.435 58.1931 49.325 58.5631 49.225C58.9431 49.115 59.3231 49.06 59.7031 49.06C60.1731 49.06 60.5081 49.2 60.7081 49.48C60.9081 49.75 61.0131 50.1 61.0231 50.53V50.575H59.4331C58.6331 50.585 57.9831 50.785 57.4831 51.175C56.9831 51.565 56.7331 52.125 56.7331 52.855C56.7331 53.545 56.9431 54.105 57.3631 54.535C57.7831 54.965 58.4281 55.18 59.2981 55.18C59.6781 55.18 60.0481 55.09 60.4081 54.91C60.7681 54.73 61.0781 54.515 61.3381 54.265L61.5931 55H62.7331V50.14C62.7331 49.65 62.5931 49.205 62.3131 48.805C62.0431 48.405 61.6781 48.095 61.2181 47.875C60.7581 47.645 60.2431 47.53 59.6731 47.53C59.4731 47.53 59.2081 47.56 58.8781 47.62C58.5481 47.67 58.2231 47.745 57.9031 47.845C57.5831 47.935 57.3281 48.045 57.1381 48.175L57.5881 49.555ZM66.0788 55V49.915C66.2888 49.755 66.5088 49.595 66.7388 49.435C66.9688 49.275 67.2088 49.145 67.4588 49.045C67.7188 48.945 67.9688 48.895 68.2088 48.895C68.6088 48.895 68.8938 49.03 69.0638 49.3C69.2438 49.57 69.3338 49.945 69.3338 50.425V55H71.0288V50.32C71.0288 49.78 70.9488 49.3 70.7888 48.88C70.6388 48.45 70.3888 48.11 70.0388 47.86C69.6888 47.61 69.2138 47.485 68.6138 47.485C68.3238 47.485 68.0138 47.53 67.6838 47.62C67.3538 47.71 67.0288 47.84 66.7088 48.01C66.3988 48.17 66.1038 48.365 65.8238 48.595L65.5238 47.725H64.3988V55H66.0788ZM77.9845 53.26C77.6545 53.41 77.3345 53.53 77.0245 53.62C76.7245 53.7 76.3845 53.74 76.0045 53.74C75.5945 53.74 75.2345 53.64 74.9245 53.44C74.6145 53.23 74.3795 52.945 74.2195 52.585C74.0595 52.225 73.9795 51.815 73.9795 51.355C73.9895 50.905 74.0745 50.5 74.2345 50.14C74.4045 49.78 74.6445 49.495 74.9545 49.285C75.2645 49.075 75.6195 48.97 76.0195 48.97C76.3995 48.97 76.7445 49.02 77.0545 49.12C77.3645 49.21 77.6845 49.325 78.0145 49.465L78.5095 48.265C78.2795 48.105 78.0045 47.97 77.6845 47.86C77.3745 47.75 77.0695 47.67 76.7695 47.62C76.4695 47.56 76.2195 47.53 76.0195 47.53C75.2595 47.53 74.5945 47.69 74.0245 48.01C73.4645 48.33 73.0295 48.78 72.7195 49.36C72.4095 49.93 72.2545 50.6 72.2545 51.37C72.2545 52.13 72.4045 52.8 72.7045 53.38C73.0145 53.95 73.4495 54.395 74.0095 54.715C74.5695 55.035 75.2295 55.195 75.9895 55.195C76.1995 55.195 76.4545 55.165 76.7545 55.105C77.0545 55.055 77.3645 54.975 77.6845 54.865C78.0045 54.755 78.2695 54.625 78.4795 54.475L77.9845 53.26ZM86.0811 51.805V51.445C86.0811 50.735 85.9661 50.085 85.7361 49.495C85.5161 48.905 85.1661 48.43 84.6861 48.07C84.2061 47.71 83.5911 47.53 82.8411 47.53C82.1011 47.53 81.4611 47.69 80.9211 48.01C80.3911 48.33 79.9811 48.78 79.6911 49.36C79.4111 49.93 79.2711 50.6 79.2711 51.37C79.2711 52.13 79.4211 52.8 79.7211 53.38C80.0211 53.95 80.4761 54.395 81.0861 54.715C81.6961 55.025 82.4461 55.18 83.3361 55.18C83.7161 55.18 84.0661 55.145 84.3861 55.075C84.7061 55.005 85.0011 54.905 85.2711 54.775C85.5411 54.635 85.7911 54.49 86.0211 54.34L85.5111 53.11C85.1511 53.3 84.8061 53.455 84.4761 53.575C84.1561 53.695 83.7861 53.755 83.3661 53.755C82.8461 53.755 82.4211 53.675 82.0911 53.515C81.7711 53.345 81.5261 53.115 81.3561 52.825C81.1961 52.535 81.0911 52.195 81.0411 51.805H86.0811ZM81.0711 50.665C81.1211 50.305 81.2161 50 81.3561 49.75C81.5061 49.5 81.7011 49.31 81.9411 49.18C82.1911 49.04 82.4711 48.97 82.7811 48.97C83.1011 48.97 83.3711 49.04 83.5911 49.18C83.8211 49.31 84.0061 49.5 84.1461 49.75C84.2961 50 84.4011 50.305 84.4611 50.665H81.0711ZM86.9479 54.49C87.1679 54.64 87.4279 54.77 87.7279 54.88C88.0279 54.99 88.3329 55.07 88.6429 55.12C88.9529 55.17 89.2079 55.195 89.4079 55.195C90.3779 55.195 91.1179 55 91.6279 54.61C92.1379 54.21 92.3929 53.665 92.3929 52.975C92.3929 52.555 92.2679 52.195 92.0179 51.895C91.7779 51.585 91.4679 51.32 91.0879 51.1C90.7179 50.87 90.3329 50.69 89.9329 50.56C89.5829 50.44 89.2729 50.31 89.0029 50.17C88.7429 50.03 88.6129 49.865 88.6129 49.675C88.6129 49.455 88.7129 49.27 88.9129 49.12C89.1229 48.97 89.3829 48.895 89.6929 48.895C90.0629 48.895 90.3979 48.945 90.6979 49.045C90.9979 49.135 91.3029 49.255 91.6129 49.405L92.1379 48.25C91.9179 48.09 91.6579 47.96 91.3579 47.86C91.0579 47.75 90.7629 47.67 90.4729 47.62C90.1829 47.56 89.9329 47.53 89.7229 47.53C88.8529 47.53 88.1679 47.725 87.6679 48.115C87.1679 48.495 86.9179 49.025 86.9179 49.705C86.9179 50.095 87.0379 50.435 87.2779 50.725C87.5279 51.005 87.8379 51.24 88.2079 51.43C88.5779 51.62 88.9529 51.785 89.3329 51.925C89.6329 52.005 89.8879 52.105 90.0979 52.225C90.3079 52.335 90.4729 52.46 90.5929 52.6C90.7129 52.73 90.7729 52.875 90.7729 53.035C90.7729 53.195 90.7079 53.335 90.5779 53.455C90.4479 53.575 90.2779 53.665 90.0679 53.725C89.8579 53.785 89.6329 53.815 89.3929 53.815C89.1829 53.815 88.9729 53.795 88.7629 53.755C88.5529 53.715 88.3379 53.66 88.1179 53.59C87.8979 53.51 87.6779 53.425 87.4579 53.335L86.9479 54.49ZM96.9591 54.385C97.0991 54.485 97.2891 54.585 97.5291 54.685C97.7691 54.775 98.0291 54.86 98.3091 54.94C98.5991 55.01 98.8841 55.07 99.1641 55.12C99.4441 55.17 99.6891 55.195 99.8991 55.195C100.709 55.195 101.389 55.075 101.939 54.835C102.489 54.585 102.909 54.255 103.199 53.845C103.499 53.435 103.649 52.96 103.649 52.42C103.649 52.01 103.574 51.655 103.424 51.355C103.274 51.045 103.069 50.77 102.809 50.53C102.549 50.29 102.244 50.07 101.894 49.87C101.554 49.66 101.189 49.455 100.799 49.255C100.339 49.015 99.9341 48.8 99.5841 48.61C99.2341 48.42 98.9641 48.22 98.7741 48.01C98.5941 47.79 98.5041 47.53 98.5041 47.23C98.5041 46.83 98.6741 46.535 99.0141 46.345C99.3541 46.145 99.7741 46.045 100.274 46.045C100.584 46.045 100.864 46.075 101.114 46.135C101.374 46.185 101.609 46.255 101.819 46.345C102.039 46.435 102.244 46.53 102.434 46.63L102.989 45.28C102.629 45.1 102.204 44.935 101.714 44.785C101.224 44.635 100.724 44.56 100.214 44.56C99.4941 44.56 98.8791 44.68 98.3691 44.92C97.8591 45.16 97.4691 45.48 97.1991 45.88C96.9291 46.28 96.7941 46.735 96.7941 47.245C96.7941 47.635 96.8641 47.985 97.0041 48.295C97.1541 48.595 97.3541 48.87 97.6041 49.12C97.8641 49.37 98.1641 49.605 98.5041 49.825C98.8541 50.035 99.2291 50.245 99.6291 50.455C100.069 50.665 100.459 50.87 100.799 51.07C101.149 51.26 101.424 51.46 101.624 51.67C101.824 51.88 101.924 52.13 101.924 52.42C101.924 52.69 101.844 52.925 101.684 53.125C101.534 53.315 101.309 53.46 101.009 53.56C100.709 53.66 100.334 53.71 99.8841 53.71C99.5841 53.71 99.2741 53.675 98.9541 53.605C98.6441 53.525 98.3491 53.435 98.0691 53.335C97.7891 53.225 97.5491 53.125 97.3491 53.035L96.9591 54.385ZM106.626 55V47.725H104.931V55H106.626ZM105.756 46.555C106.036 46.555 106.271 46.46 106.461 46.27C106.661 46.07 106.761 45.83 106.761 45.55C106.761 45.27 106.661 45.035 106.461 44.845C106.261 44.655 106.026 44.56 105.756 44.56C105.476 44.56 105.241 44.655 105.051 44.845C104.871 45.035 104.781 45.27 104.781 45.55C104.781 45.84 104.871 46.08 105.051 46.27C105.241 46.46 105.476 46.555 105.756 46.555ZM110.024 55V49.915C110.234 49.755 110.454 49.595 110.684 49.435C110.914 49.275 111.154 49.145 111.404 49.045C111.664 48.945 111.914 48.895 112.154 48.895C112.554 48.895 112.839 49.03 113.009 49.3C113.189 49.57 113.279 49.945 113.279 50.425V55H114.974V50.32C114.974 49.78 114.894 49.3 114.734 48.88C114.584 48.45 114.334 48.11 113.984 47.86C113.634 47.61 113.159 47.485 112.559 47.485C112.269 47.485 111.959 47.53 111.629 47.62C111.299 47.71 110.974 47.84 110.654 48.01C110.344 48.17 110.049 48.365 109.769 48.595L109.469 47.725H108.344V55H110.024ZM121.93 53.26C121.6 53.41 121.28 53.53 120.97 53.62C120.67 53.7 120.33 53.74 119.95 53.74C119.54 53.74 119.18 53.64 118.87 53.44C118.56 53.23 118.325 52.945 118.165 52.585C118.005 52.225 117.925 51.815 117.925 51.355C117.935 50.905 118.02 50.5 118.18 50.14C118.35 49.78 118.59 49.495 118.9 49.285C119.21 49.075 119.565 48.97 119.965 48.97C120.345 48.97 120.69 49.02 121 49.12C121.31 49.21 121.63 49.325 121.96 49.465L122.455 48.265C122.225 48.105 121.95 47.97 121.63 47.86C121.32 47.75 121.015 47.67 120.715 47.62C120.415 47.56 120.165 47.53 119.965 47.53C119.205 47.53 118.54 47.69 117.97 48.01C117.41 48.33 116.975 48.78 116.665 49.36C116.355 49.93 116.2 50.6 116.2 51.37C116.2 52.13 116.35 52.8 116.65 53.38C116.96 53.95 117.395 54.395 117.955 54.715C118.515 55.035 119.175 55.195 119.935 55.195C120.145 55.195 120.4 55.165 120.7 55.105C121 55.055 121.31 54.975 121.63 54.865C121.95 54.755 122.215 54.625 122.425 54.475L121.93 53.26ZM130.026 51.805V51.445C130.026 50.735 129.911 50.085 129.681 49.495C129.461 48.905 129.111 48.43 128.631 48.07C128.151 47.71 127.536 47.53 126.786 47.53C126.046 47.53 125.406 47.69 124.866 48.01C124.336 48.33 123.926 48.78 123.636 49.36C123.356 49.93 123.216 50.6 123.216 51.37C123.216 52.13 123.366 52.8 123.666 53.38C123.966 53.95 124.421 54.395 125.031 54.715C125.641 55.025 126.391 55.18 127.281 55.18C127.661 55.18 128.011 55.145 128.331 55.075C128.651 55.005 128.946 54.905 129.216 54.775C129.486 54.635 129.736 54.49 129.966 54.34L129.456 53.11C129.096 53.3 128.751 53.455 128.421 53.575C128.101 53.695 127.731 53.755 127.311 53.755C126.791 53.755 126.366 53.675 126.036 53.515C125.716 53.345 125.471 53.115 125.301 52.825C125.141 52.535 125.036 52.195 124.986 51.805H130.026ZM125.016 50.665C125.066 50.305 125.161 50 125.301 49.75C125.451 49.5 125.646 49.31 125.886 49.18C126.136 49.04 126.416 48.97 126.726 48.97C127.046 48.97 127.316 49.04 127.536 49.18C127.766 49.31 127.951 49.5 128.091 49.75C128.241 50 128.346 50.305 128.406 50.665H125.016ZM138.011 55V46.51H136.886L133.991 47.86L134.681 49.135L136.316 48.385V55H138.011ZM145.747 50.905L145.372 49.78C145.142 50.04 144.887 50.27 144.607 50.47C144.337 50.66 144.047 50.81 143.737 50.92C143.427 51.03 143.102 51.085 142.762 51.085C142.412 51.085 142.102 51.01 141.832 50.86C141.562 50.71 141.347 50.505 141.187 50.245C141.037 49.975 140.962 49.67 140.962 49.33C140.962 49.02 141.037 48.745 141.187 48.505C141.337 48.255 141.547 48.06 141.817 47.92C142.087 47.78 142.392 47.71 142.732 47.71C143.132 47.71 143.492 47.81 143.812 48.01C144.132 48.2 144.387 48.495 144.577 48.895C144.767 49.295 144.862 49.805 144.862 50.425C144.862 50.955 144.772 51.425 144.592 51.835C144.412 52.245 144.167 52.61 143.857 52.93C143.557 53.24 143.217 53.51 142.837 53.74C142.457 53.96 142.057 54.145 141.637 54.295C141.227 54.435 140.827 54.555 140.437 54.655L140.707 56.02C141.187 55.96 141.692 55.835 142.222 55.645C142.762 55.455 143.282 55.2 143.782 54.88C144.282 54.56 144.732 54.18 145.132 53.74C145.542 53.29 145.862 52.78 146.092 52.21C146.332 51.63 146.452 50.995 146.452 50.305C146.452 49.415 146.287 48.68 145.957 48.1C145.637 47.51 145.187 47.065 144.607 46.765C144.037 46.465 143.392 46.315 142.672 46.315C142.052 46.315 141.497 46.45 141.007 46.72C140.517 46.98 140.132 47.34 139.852 47.8C139.582 48.26 139.447 48.795 139.447 49.405C139.447 49.975 139.587 50.49 139.867 50.95C140.147 51.41 140.532 51.775 141.022 52.045C141.512 52.305 142.077 52.435 142.717 52.435C143.177 52.435 143.577 52.365 143.917 52.225C144.267 52.085 144.587 51.9 144.877 51.67C145.167 51.43 145.457 51.175 145.747 50.905ZM151.048 55V46.51H149.923L147.028 47.86L147.718 49.135L149.353 48.385V55H151.048ZM158.784 50.905L158.409 49.78C158.179 50.04 157.924 50.27 157.644 50.47C157.374 50.66 157.084 50.81 156.774 50.92C156.464 51.03 156.139 51.085 155.799 51.085C155.449 51.085 155.139 51.01 154.869 50.86C154.599 50.71 154.384 50.505 154.224 50.245C154.074 49.975 153.999 49.67 153.999 49.33C153.999 49.02 154.074 48.745 154.224 48.505C154.374 48.255 154.584 48.06 154.854 47.92C155.124 47.78 155.429 47.71 155.769 47.71C156.169 47.71 156.529 47.81 156.849 48.01C157.169 48.2 157.424 48.495 157.614 48.895C157.804 49.295 157.899 49.805 157.899 50.425C157.899 50.955 157.809 51.425 157.629 51.835C157.449 52.245 157.204 52.61 156.894 52.93C156.594 53.24 156.254 53.51 155.874 53.74C155.494 53.96 155.094 54.145 154.674 54.295C154.264 54.435 153.864 54.555 153.474 54.655L153.744 56.02C154.224 55.96 154.729 55.835 155.259 55.645C155.799 55.455 156.319 55.2 156.819 54.88C157.319 54.56 157.769 54.18 158.169 53.74C158.579 53.29 158.899 52.78 159.129 52.21C159.369 51.63 159.489 50.995 159.489 50.305C159.489 49.415 159.324 48.68 158.994 48.1C158.674 47.51 158.224 47.065 157.644 46.765C157.074 46.465 156.429 46.315 155.709 46.315C155.089 46.315 154.534 46.45 154.044 46.72C153.554 46.98 153.169 47.34 152.889 47.8C152.619 48.26 152.484 48.795 152.484 49.405C152.484 49.975 152.624 50.49 152.904 50.95C153.184 51.41 153.569 51.775 154.059 52.045C154.549 52.305 155.114 52.435 155.754 52.435C156.214 52.435 156.614 52.365 156.954 52.225C157.304 52.085 157.624 51.9 157.914 51.67C158.204 51.43 158.494 51.175 158.784 50.905Z" fill="#999999"/>
<line y1="49.5" x2="16" y2="49.5" stroke="#999999"/>
<line x1="165" y1="50.5" x2="181" y2="50.5" stroke="#999999"/>
</svg>
